<svg data-v-fde0c5aa="" xmlns="http://www.w3.org/2000/svg" viewBox="0 0 300 300" class="font"><!----><defs data-v-fde0c5aa=""><!----></defs><rect data-v-fde0c5aa="" fill="#949FFF" x="0" y="0" width="300px" height="300px" class="logo-background-square"></rect><defs data-v-fde0c5aa=""><!----></defs><g data-v-fde0c5aa="" id="24cfc17a-3efa-43de-9b62-32492433b86c" fill="#F2FF83" transform="matrix(2.3082571401194945,0,0,2.3082571401194945,39.19210994592504,132.14563071299014)"><path d="M6.23 8.89L9.02 8.89C8.62 10.38 7.56 11.13 5.81 11.13C4.83 11.13 4.00 10.81 3.33 10.16C2.65 9.51 2.31 8.69 2.31 7.70C2.31 6.71 2.65 5.89 3.33 5.24C4.00 4.59 4.83 4.27 5.81 4.27C6.45 4.27 7.05 4.39 7.61 4.64C8.16 4.89 8.59 5.26 8.88 5.75L10.15 4.55C9.31 3.20 7.86 2.52 5.81 2.52C4.23 2.52 2.93 3.00 1.90 3.97C0.87 4.93 0.35 6.18 0.35 7.70C0.35 9.22 0.87 10.46 1.90 11.43C2.93 12.40 4.23 12.88 5.81 12.88C7.43 12.88 8.70 12.40 9.62 11.44C10.53 10.48 10.99 9.18 10.99 7.56L10.99 7.14L6.23 7.14ZM12.68 8.15C12.88 8.01 13.18 7.87 13.59 7.73C13.99 7.59 14.40 7.52 14.81 7.52C15.67 7.52 16.10 7.80 16.10 8.37L16.10 9.02C15.58 8.75 14.91 8.61 14.08 8.61C13.81 8.61 13.54 8.65 13.27 8.72C12.99 8.80 12.72 8.91 12.45 9.07C12.19 9.23 11.97 9.46 11.80 9.75C11.63 10.04 11.55 10.39 11.55 10.78C11.55 11.41 11.78 11.89 12.23 12.23C12.68 12.57 13.31 12.74 14.11 12.74C15.09 12.74 15.75 12.41 16.10 11.75L16.10 12.60L17.99 12.60L17.99 7.98C17.99 7.31 17.71 6.80 17.14 6.46C16.57 6.12 15.79 5.95 14.81 5.95C14.29 5.95 13.79 6.04 13.31 6.22C12.83 6.39 12.44 6.59 12.14 6.80ZM13.45 10.58C13.45 10.08 13.92 9.83 14.84 9.83C15.32 9.83 15.74 9.90 16.10 10.04L16.10 10.08C16.10 10.51 15.96 10.82 15.67 11.03C15.38 11.23 15.00 11.33 14.53 11.33C14.21 11.33 13.94 11.26 13.75 11.13C13.55 11.00 13.45 10.82 13.45 10.58ZM21.70 8.82C21.70 8.48 21.80 8.21 21.99 8.00C22.19 7.79 22.47 7.69 22.85 7.69C23.53 7.69 23.87 8.02 23.87 8.68L23.87 12.60L25.76 12.60L25.76 8.82C25.76 8.48 25.86 8.21 26.05 8.00C26.25 7.79 26.53 7.69 26.91 7.69C27.59 7.69 27.93 8.02 27.93 8.68L27.93 12.60L29.82 12.60L29.82 8.40C29.82 7.60 29.62 7.00 29.23 6.60C28.84 6.20 28.30 6.01 27.61 6.01C27.15 6.01 26.74 6.11 26.38 6.32C26.01 6.53 25.72 6.82 25.51 7.18C25.15 6.40 24.50 6.01 23.55 6.01C22.81 6.01 22.19 6.37 21.70 7.11L21.70 6.16L19.67 6.16L19.67 12.60L21.70 12.60ZM36.02 8.62L32.90 8.62C32.97 8.22 33.17 7.91 33.49 7.69C33.81 7.46 34.16 7.35 34.55 7.35C35.41 7.35 35.90 7.77 36.02 8.62ZM32.89 9.87L37.98 9.87C38.00 9.69 38.01 9.49 38.01 9.25C38.01 8.25 37.70 7.44 37.07 6.85C36.45 6.25 35.61 5.95 34.55 5.95C33.48 5.95 32.61 6.27 31.94 6.92C31.27 7.57 30.94 8.39 30.94 9.38C30.94 10.38 31.26 11.19 31.90 11.81C32.54 12.43 33.42 12.74 34.55 12.74C36.19 12.74 37.31 12.10 37.93 10.82L36.13 10.42C35.84 10.99 35.32 11.27 34.55 11.27C33.60 11.27 33.04 10.80 32.89 9.87ZM43.40 2.80L43.40 12.60L46.83 12.60C47.92 12.60 48.81 12.36 49.49 11.87C50.17 11.39 50.51 10.65 50.51 9.66C50.51 8.58 49.92 7.80 48.73 7.34C49.55 6.98 49.95 6.36 49.95 5.46C49.95 4.62 49.66 3.97 49.06 3.50C48.47 3.03 47.63 2.80 46.55 2.80ZM45.36 6.58L45.36 4.55L46.55 4.55C47.51 4.55 47.99 4.88 47.99 5.53C47.99 6.23 47.51 6.58 46.55 6.58ZM45.36 8.26L46.83 8.26C47.34 8.26 47.76 8.37 48.08 8.60C48.39 8.82 48.55 9.15 48.55 9.59C48.55 10.43 47.98 10.85 46.83 10.85L45.36 10.85ZM56.10 8.15L57.06 6.64C56.72 6.22 56.20 6.01 55.51 6.01C54.88 6.01 54.33 6.35 53.87 7.03L53.87 6.16L51.91 6.16L51.91 12.60L53.87 12.60L53.87 9.02C53.87 8.57 53.96 8.26 54.15 8.09C54.33 7.91 54.62 7.83 55.02 7.83C55.44 7.83 55.80 7.93 56.10 8.15ZM57.41 9.38C57.41 10.44 57.78 11.28 58.51 11.89C59.25 12.50 60.13 12.81 61.17 12.81C62.20 12.81 63.09 12.50 63.82 11.89C64.55 11.28 64.92 10.44 64.92 9.38C64.92 8.32 64.55 7.48 63.82 6.87C63.09 6.26 62.20 5.95 61.17 5.95C60.13 5.95 59.25 6.26 58.51 6.87C57.78 7.48 57.41 8.32 57.41 9.38ZM59.32 9.38C59.32 8.84 59.49 8.40 59.82 8.06C60.16 7.73 60.61 7.56 61.17 7.56C61.73 7.56 62.17 7.73 62.51 8.06C62.85 8.40 63.01 8.84 63.01 9.38C63.01 9.92 62.85 10.36 62.51 10.70C62.17 11.03 61.73 11.20 61.17 11.20C60.61 11.20 60.16 11.03 59.82 10.70C59.49 10.36 59.32 9.92 59.32 9.38ZM64.99 6.16L68.21 12.95L70.32 9.31L72.55 12.95L75.70 6.16L73.60 6.16L72.34 9.45L70.31 5.95L68.40 9.44L67.09 6.16ZM77.46 10.35L75.84 10.88C75.93 11.48 76.24 11.95 76.78 12.29C77.31 12.64 77.98 12.81 78.78 12.81C79.59 12.81 80.26 12.61 80.77 12.22C81.29 11.83 81.55 11.35 81.55 10.78C81.55 10.23 81.38 9.79 81.04 9.47C80.70 9.15 80.25 8.89 79.70 8.68C79.57 8.63 79.41 8.58 79.21 8.51C79.02 8.45 78.87 8.40 78.76 8.36C78.66 8.32 78.55 8.27 78.44 8.22C78.33 8.16 78.25 8.11 78.20 8.05C78.16 7.99 78.13 7.93 78.13 7.85C78.13 7.52 78.34 7.35 78.76 7.35C79.22 7.35 79.62 7.59 79.95 8.06L81.42 7.56C81.00 6.49 80.09 5.95 78.68 5.95C77.94 5.95 77.35 6.12 76.91 6.45C76.47 6.79 76.24 7.26 76.24 7.85C76.24 8.79 76.88 9.45 78.16 9.86C78.63 10.01 78.99 10.15 79.24 10.29C79.49 10.43 79.62 10.59 79.62 10.78C79.62 11.15 79.34 11.34 78.78 11.34C78.12 11.34 77.68 11.01 77.46 10.35ZM87.40 8.62L84.28 8.62C84.35 8.22 84.55 7.91 84.87 7.69C85.19 7.46 85.54 7.35 85.93 7.35C86.79 7.35 87.28 7.77 87.40 8.62ZM84.27 9.87L89.36 9.87C89.38 9.69 89.39 9.49 89.39 9.25C89.39 8.25 89.08 7.44 88.45 6.85C87.83 6.25 86.99 5.95 85.93 5.95C84.86 5.95 83.99 6.27 83.32 6.92C82.65 7.57 82.32 8.39 82.32 9.38C82.32 10.38 82.64 11.19 83.28 11.81C83.92 12.43 84.80 12.74 85.93 12.74C87.57 12.74 88.69 12.10 89.31 10.82L87.51 10.42C87.22 10.99 86.70 11.27 85.93 11.27C84.98 11.27 84.42 10.80 84.27 9.87ZM94.70 8.15L95.66 6.64C95.32 6.22 94.80 6.01 94.11 6.01C93.47 6.01 92.93 6.35 92.47 7.03L92.47 6.16L90.51 6.16L90.51 12.60L92.47 12.60L92.47 9.02C92.47 8.57 92.56 8.26 92.74 8.09C92.93 7.91 93.22 7.83 93.62 7.83C94.04 7.83 94.40 7.93 94.70 8.15Z"></path></g><!----><!----></svg>